<svg xmlns="http://www.w3.org/2000/svg"
     viewBox = "0 0 1251 1251"
     width="1251"
     height="1251">
    <g fill="None" fill-opacity="0.0" stroke="#000000" stroke-opacity="0.00" stroke-width="0.3"><path d="
M 0.00 1251.00
L 1251.00 1251.00
L 1251.00 0.00
L 0.00 0.00
L 0.00 1251.00
M 1040.00 668.00
C 1032.75 745.34 1006.52 828.05 957.23 888.23 C 907.94 948.41 854.21 991.44 784.00 1018.00
C 747.57 1031.78 711.39 1040.34 672.00 1044.00 C 632.61 1047.66 582.00 1044.54 545.33 1035.67 C 508.65 1026.81 475.87 1015.08 444.31 997.70 C 412.74 980.31 389.64 964.78 363.25 940.75 C 336.87 916.71 318.89 894.97 299.08 865.92 C 279.28 836.87 265.17 807.53 253.02 772.98 C 240.88 738.42 232.22 694.90 231.00 656.00 C 229.78 617.10 234.88 567.47 244.99 531.99 C 255.11 496.51 268.86 465.41 286.77 434.77 C 304.68 404.13 322.02 381.52 347.25 356.25 C 372.48 330.97 394.01 312.73 424.25 294.25 C 454.48 275.76 484.86 262.89 520.02 252.02 C 555.18 241.15 603.03 234.32 642.00 235.00 C 680.97 235.68 726.31 243.13 761.22 254.78 C 796.14 266.43 825.96 280.11 855.70 299.30 C 885.43 318.50 906.37 336.49 930.75 362.25 C 955.13 388.01 972.31 410.99 989.77 442.23 C 1007.23 473.46 1020.11 505.25 1029.33 541.67 C 1038.54 578.09 1043.74 628.09 1040.00 668.00 Z"/>
    </g>
    <g fill="None" fill-opacity="0.0" stroke="#099143" stroke-opacity="1.00" stroke-width="0.3"><path d="
M 784.00 1018.00
C 719.27 951.05 652.13 884.14 586.00 818.00
C 581.50 813.50 576.66 809.48 572.25 804.75 C 567.84 800.03 562.76 795.40 558.25 790.75 C 553.74 786.10 549.30 781.86 544.75 777.25 C 540.20 772.63 535.31 767.85 530.75 763.25 C 526.19 758.64 521.81 754.35 517.25 749.75 C 512.69 745.16 507.80 740.34 503.25 735.75 C 498.70 731.16 494.26 726.84 489.75 722.25 C 485.24 717.66 480.17 712.85 475.75 708.25 C 471.34 703.65 466.44 699.36 462.25 694.75 C 458.06 690.15 452.00 685.37 448.25 680.75 C 444.50 676.13 437.41 671.91 434.75 667.25 C 432.10 662.59 421.00 658.02 421.00 653.00
C 421.00 648.48 430.25 644.92 432.75 640.75 C 435.25 636.58 441.88 632.44 445.25 628.25 C 448.61 624.06 454.06 619.97 457.75 615.75 C 461.44 611.53 466.75 607.56 470.00 603.00
C 509.00 641.17 547.88 680.05 586.00 719.00
C 671.42 637.41 754.12 550.72 839.00 468.00
C 843.51 468.00 847.10 477.28 851.25 479.75 C 855.40 482.22 859.60 488.97 863.75 492.25 C 867.90 495.52 871.55 500.64 875.75 504.25 C 879.96 507.86 884.13 513.13 888.00 517.00
C 894.83 520.32 898.75 528.46 904.75 533.25 C 910.75 538.04 915.96 544.99 921.75 550.25 C 927.54 555.50 933.09 561.81 938.75 567.25 C 944.42 572.69 949.67 578.20 955.25 583.75 C 960.83 589.31 966.76 595.11 972.25 600.75 C 977.74 606.39 983.96 612.04 989.25 617.75 C 994.54 623.46 1000.88 628.38 1005.75 634.25 C 1010.62 640.11 1018.73 645.07 1022.75 651.25 C 1026.78 657.43 1037.64 661.61 1040.00 668.00
C 1043.74 628.09 1038.54 578.09 1029.33 541.67 C 1020.11 505.25 1007.23 473.46 989.77 442.23 C 972.31 410.99 955.13 388.01 930.75 362.25 C 906.37 336.49 885.43 318.50 855.70 299.30 C 825.96 280.11 796.14 266.43 761.22 254.78 C 726.31 243.13 680.97 235.68 642.00 235.00 C 603.03 234.32 555.18 241.15 520.02 252.02 C 484.86 262.89 454.48 275.76 424.25 294.25 C 394.01 312.73 372.48 330.97 347.25 356.25 C 322.02 381.52 304.68 404.13 286.77 434.77 C 268.86 465.41 255.11 496.51 244.99 531.99 C 234.88 567.47 229.78 617.10 231.00 656.00 C 232.22 694.90 240.88 738.42 253.02 772.98 C 265.17 807.53 279.28 836.87 299.08 865.92 C 318.89 894.97 336.87 916.71 363.25 940.75 C 389.64 964.78 412.74 980.31 444.31 997.70 C 475.87 1015.08 508.65 1026.81 545.33 1035.67 C 582.00 1044.54 632.61 1047.66 672.00 1044.00 C 711.39 1040.34 747.57 1031.78 784.00 1018.00 Z"/>
    </g>
    <g fill="None" fill-opacity="0.0" stroke="#F2F2F3" stroke-opacity="1.00" stroke-width="0.3"><path d="
M 421.00 653.00
C 476.33 707.50 531.55 762.72 586.00 818.00
C 606.34 798.45 626.33 778.34 646.25 758.25 C 666.16 738.16 686.51 718.53 706.25 698.25 C 725.99 677.97 747.41 658.34 766.75 637.75 C 786.10 617.16 808.31 599.00 826.75 577.75 C 845.19 556.50 870.98 539.93 887.00 517.00
C 874.03 498.51 852.51 486.03 839.00 468.00
C 754.12 550.72 671.42 637.41 586.00 719.00
C 547.88 680.05 509.00 641.17 470.00 603.00
C 466.75 607.56 461.44 611.53 457.75 615.75 C 454.06 619.97 448.61 624.06 445.25 628.25 C 441.88 632.44 435.25 636.58 432.75 640.75 C 430.25 644.92 421.00 648.48 421.00 653.00 Z"/>
    </g>
    <g fill="None" fill-opacity="0.0" stroke="#C7E1D3" stroke-opacity="1.00" stroke-width="0.3"><path d="
M 887.00 517.00
C 887.16 516.77 888.00 517.00 888.00 517.00
C 884.13 513.13 879.96 507.86 875.75 504.25 C 871.55 500.64 867.90 495.52 863.75 492.25 C 859.60 488.97 855.40 482.22 851.25 479.75 C 847.10 477.28 843.51 468.00 839.00 468.00
C 852.51 486.03 874.03 498.51 887.00 517.00 Z"/>
    </g>
    <g fill="None" fill-opacity="0.0" stroke="#087B37" stroke-opacity="1.00" stroke-width="0.3"><path d="
M 586.00 818.00
C 652.13 884.14 719.27 951.05 784.00 1018.00
C 854.21 991.44 907.94 948.41 957.23 888.23 C 1006.52 828.05 1032.75 745.34 1040.00 668.00
C 1037.64 661.61 1026.78 657.43 1022.75 651.25 C 1018.73 645.07 1010.62 640.11 1005.75 634.25 C 1000.88 628.38 994.54 623.46 989.25 617.75 C 983.96 612.04 977.74 606.39 972.25 600.75 C 966.76 595.11 960.83 589.31 955.25 583.75 C 949.67 578.20 944.42 572.69 938.75 567.25 C 933.09 561.81 927.54 555.50 921.75 550.25 C 915.96 544.99 910.75 538.04 904.75 533.25 C 898.75 528.46 894.83 520.32 888.00 517.00
C 888.00 517.00 887.16 516.77 887.00 517.00
C 870.98 539.93 845.19 556.50 826.75 577.75 C 808.31 599.00 786.10 617.16 766.75 637.75 C 747.41 658.34 725.99 677.97 706.25 698.25 C 686.51 718.53 666.16 738.16 646.25 758.25 C 626.33 778.34 606.34 798.45 586.00 818.00 Z"/>
    </g>
    <g fill="None" fill-opacity="0.0" stroke="#C7E1D3" stroke-opacity="1.00" stroke-width="0.3"><path d="
M 586.00 818.00
C 531.55 762.72 476.33 707.50 421.00 653.00
C 421.00 658.02 432.10 662.59 434.75 667.25 C 437.41 671.91 444.50 676.13 448.25 680.75 C 452.00 685.37 458.06 690.15 462.25 694.75 C 466.44 699.36 471.34 703.65 475.75 708.25 C 480.17 712.85 485.24 717.66 489.75 722.25 C 494.26 726.84 498.70 731.16 503.25 735.75 C 507.80 740.34 512.69 745.16 517.25 749.75 C 521.81 754.35 526.19 758.64 530.75 763.25 C 535.31 767.85 540.20 772.63 544.75 777.25 C 549.30 781.86 553.74 786.10 558.25 790.75 C 562.76 795.40 567.84 800.03 572.25 804.75 C 576.66 809.48 581.50 813.50 586.00 818.00 Z"/>
    </g>
    <g fill="#000000" fill-opacity="0.00" stroke="None">
        <path d="
M 0.00 1251.00
L 1251.00 1251.00
L 1251.00 0.00
L 0.00 0.00
L 0.00 1251.00
M 1040.00 668.00
C 1032.75 745.34 1006.52 828.05 957.23 888.23 C 907.94 948.41 854.21 991.44 784.00 1018.00
C 747.57 1031.78 711.39 1040.34 672.00 1044.00 C 632.61 1047.66 582.00 1044.54 545.33 1035.67 C 508.65 1026.81 475.87 1015.08 444.31 997.70 C 412.74 980.31 389.64 964.78 363.25 940.75 C 336.87 916.71 318.89 894.97 299.08 865.92 C 279.28 836.87 265.17 807.53 253.02 772.98 C 240.88 738.42 232.22 694.90 231.00 656.00 C 229.78 617.10 234.88 567.47 244.99 531.99 C 255.11 496.51 268.86 465.41 286.77 434.77 C 304.68 404.13 322.02 381.52 347.25 356.25 C 372.48 330.97 394.01 312.73 424.25 294.25 C 454.48 275.76 484.86 262.89 520.02 252.02 C 555.18 241.15 603.03 234.32 642.00 235.00 C 680.97 235.68 726.31 243.13 761.22 254.78 C 796.14 266.43 825.96 280.11 855.70 299.30 C 885.43 318.50 906.37 336.49 930.75 362.25 C 955.13 388.01 972.31 410.99 989.77 442.23 C 1007.23 473.46 1020.11 505.25 1029.33 541.67 C 1038.54 578.09 1043.74 628.09 1040.00 668.00 Z"/>
    </g>
    <g fill="#099143" fill-opacity="1.00" stroke="None">
        <path d="
M 784.00 1018.00
C 719.27 951.05 652.13 884.14 586.00 818.00
C 581.50 813.50 576.66 809.48 572.25 804.75 C 567.84 800.03 562.76 795.40 558.25 790.75 C 553.74 786.10 549.30 781.86 544.75 777.25 C 540.20 772.63 535.31 767.85 530.75 763.25 C 526.19 758.64 521.81 754.35 517.25 749.75 C 512.69 745.16 507.80 740.34 503.25 735.75 C 498.70 731.16 494.26 726.84 489.75 722.25 C 485.24 717.66 480.17 712.85 475.75 708.25 C 471.34 703.65 466.44 699.36 462.25 694.75 C 458.06 690.15 452.00 685.37 448.25 680.75 C 444.50 676.13 437.41 671.91 434.75 667.25 C 432.10 662.59 421.00 658.02 421.00 653.00
C 421.00 648.48 430.25 644.92 432.75 640.75 C 435.25 636.58 441.88 632.44 445.25 628.25 C 448.61 624.06 454.06 619.97 457.75 615.75 C 461.44 611.53 466.75 607.56 470.00 603.00
C 509.00 641.17 547.88 680.05 586.00 719.00
C 671.42 637.41 754.12 550.72 839.00 468.00
C 843.51 468.00 847.10 477.28 851.25 479.75 C 855.40 482.22 859.60 488.97 863.75 492.25 C 867.90 495.52 871.55 500.64 875.75 504.25 C 879.96 507.86 884.13 513.13 888.00 517.00
C 894.83 520.32 898.75 528.46 904.75 533.25 C 910.75 538.04 915.96 544.99 921.75 550.25 C 927.54 555.50 933.09 561.81 938.75 567.25 C 944.42 572.69 949.67 578.20 955.25 583.75 C 960.83 589.31 966.76 595.11 972.25 600.75 C 977.74 606.39 983.96 612.04 989.25 617.75 C 994.54 623.46 1000.88 628.38 1005.75 634.25 C 1010.62 640.11 1018.73 645.07 1022.75 651.25 C 1026.78 657.43 1037.64 661.61 1040.00 668.00
C 1043.74 628.09 1038.54 578.09 1029.33 541.67 C 1020.11 505.25 1007.23 473.46 989.77 442.23 C 972.31 410.99 955.13 388.01 930.75 362.25 C 906.37 336.49 885.43 318.50 855.70 299.30 C 825.96 280.11 796.14 266.43 761.22 254.78 C 726.31 243.13 680.97 235.68 642.00 235.00 C 603.03 234.32 555.18 241.15 520.02 252.02 C 484.86 262.89 454.48 275.76 424.25 294.25 C 394.01 312.73 372.48 330.97 347.25 356.25 C 322.02 381.52 304.68 404.13 286.77 434.77 C 268.86 465.41 255.11 496.51 244.99 531.99 C 234.88 567.47 229.78 617.10 231.00 656.00 C 232.22 694.90 240.88 738.42 253.02 772.98 C 265.17 807.53 279.28 836.87 299.08 865.92 C 318.89 894.97 336.87 916.71 363.25 940.75 C 389.64 964.78 412.74 980.31 444.31 997.70 C 475.87 1015.08 508.65 1026.81 545.33 1035.67 C 582.00 1044.54 632.61 1047.66 672.00 1044.00 C 711.39 1040.34 747.57 1031.78 784.00 1018.00 Z"/>
    </g>
    <g fill="#F2F2F3" fill-opacity="1.00" stroke="None">
        <path d="
M 421.00 653.00
C 476.33 707.50 531.55 762.72 586.00 818.00
C 606.34 798.45 626.33 778.34 646.25 758.25 C 666.16 738.16 686.51 718.53 706.25 698.25 C 725.99 677.97 747.41 658.34 766.75 637.75 C 786.10 617.16 808.31 599.00 826.75 577.75 C 845.19 556.50 870.98 539.93 887.00 517.00
C 874.03 498.51 852.51 486.03 839.00 468.00
C 754.12 550.72 671.42 637.41 586.00 719.00
C 547.88 680.05 509.00 641.17 470.00 603.00
C 466.75 607.56 461.44 611.53 457.75 615.75 C 454.06 619.97 448.61 624.06 445.25 628.25 C 441.88 632.44 435.25 636.58 432.75 640.75 C 430.25 644.92 421.00 648.48 421.00 653.00 Z"/>
    </g>
    <g fill="#C7E1D3" fill-opacity="1.00" stroke="None">
        <path d="
M 887.00 517.00
C 887.16 516.77 888.00 517.00 888.00 517.00
C 884.13 513.13 879.96 507.86 875.75 504.25 C 871.55 500.64 867.90 495.52 863.75 492.25 C 859.60 488.97 855.40 482.22 851.25 479.75 C 847.10 477.28 843.51 468.00 839.00 468.00
C 852.51 486.03 874.03 498.51 887.00 517.00 Z"/>
    </g>
    <g fill="#087B37" fill-opacity="1.00" stroke="None">
        <path d="
M 586.00 818.00
C 652.13 884.14 719.27 951.05 784.00 1018.00
C 854.21 991.44 907.94 948.41 957.23 888.23 C 1006.52 828.05 1032.75 745.34 1040.00 668.00
C 1037.64 661.61 1026.78 657.43 1022.75 651.25 C 1018.73 645.07 1010.62 640.11 1005.75 634.25 C 1000.88 628.38 994.54 623.46 989.25 617.75 C 983.96 612.04 977.74 606.39 972.25 600.75 C 966.76 595.11 960.83 589.31 955.25 583.75 C 949.67 578.20 944.42 572.69 938.75 567.25 C 933.09 561.81 927.54 555.50 921.75 550.25 C 915.96 544.99 910.75 538.04 904.75 533.25 C 898.75 528.46 894.83 520.32 888.00 517.00
C 888.00 517.00 887.16 516.77 887.00 517.00
C 870.98 539.93 845.19 556.50 826.75 577.75 C 808.31 599.00 786.10 617.16 766.75 637.75 C 747.41 658.34 725.99 677.97 706.25 698.25 C 686.51 718.53 666.16 738.16 646.25 758.25 C 626.33 778.34 606.34 798.45 586.00 818.00 Z"/>
    </g>
    <g fill="#C7E1D3" fill-opacity="1.00" stroke="None">
        <path d="
M 586.00 818.00
C 531.55 762.72 476.33 707.50 421.00 653.00
C 421.00 658.02 432.10 662.59 434.75 667.25 C 437.41 671.91 444.50 676.13 448.25 680.75 C 452.00 685.37 458.06 690.15 462.25 694.75 C 466.44 699.36 471.34 703.65 475.75 708.25 C 480.17 712.85 485.24 717.66 489.75 722.25 C 494.26 726.84 498.70 731.16 503.25 735.75 C 507.80 740.34 512.69 745.16 517.25 749.75 C 521.81 754.35 526.19 758.64 530.75 763.25 C 535.31 767.85 540.20 772.63 544.75 777.25 C 549.30 781.86 553.74 786.10 558.25 790.75 C 562.76 795.40 567.84 800.03 572.25 804.75 C 576.66 809.48 581.50 813.50 586.00 818.00 Z"/>
    </g>
</svg>